<?xml version="1.0" encoding="iso-8859-1"?>
<!-- Generator: Adobe Illustrator 19.0.0, SVG Export Plug-In . SVG Version: 6.00 Build 0)  -->
<svg version="1.1" id="Layer_1" xmlns="http://www.w3.org/2000/svg" xmlns:xlink="http://www.w3.org/1999/xlink" x="0px" y="0px"
	 viewBox="0 0 512 512" style="enable-background:new 0 0 512 512;" xml:space="preserve">
<g>
	<g>
		<path d="M469.333,174.321V64c0-35.355-28.645-64-64-64H106.667c-35.355,0-64,28.645-64,64v110.321
			C17.808,183.105,0,206.794,0,234.667V320v149.333C0,492.891,19.109,512,42.667,512h42.667C108.891,512,128,492.891,128,469.333
			V448h256v21.333C384,492.891,403.109,512,426.667,512h42.667C492.891,512,512,492.891,512,469.333V320v-85.333
			C512,206.794,494.192,183.105,469.333,174.321z M85.333,64c0-11.791,9.542-21.333,21.333-21.333h298.667
			c11.791,0,21.333,9.542,21.333,21.333v106.667H382.23C372.071,110.135,319.415,64,256,64s-116.071,46.135-126.23,106.667H85.333
			V64z M338.643,170.667H173.357c9.476-36.8,42.89-64,82.643-64S329.168,133.867,338.643,170.667z M42.667,234.667
			c0-11.791,9.542-21.333,21.333-21.333h85.333h213.333H448c11.791,0,21.333,9.542,21.333,21.333v64H42.667V234.667z
			 M426.667,469.333v-42.667c0-11.782-9.551-21.333-21.333-21.333H106.667c-11.782,0-21.333,9.551-21.333,21.333v42.667H42.667v-128
			h426.667v128H426.667z"/>
	</g>
</g>
<g>
</g>
<g>
</g>
<g>
</g>
<g>
</g>
<g>
</g>
<g>
</g>
<g>
</g>
<g>
</g>
<g>
</g>
<g>
</g>
<g>
</g>
<g>
</g>
<g>
</g>
<g>
</g>
<g>
</g>
</svg>
